<?xml version="1.0" encoding="utf-8"?>
<!-- Generator: Adobe Illustrator 27.6.1, SVG Export Plug-In . SVG Version: 6.00 Build 0)  -->
<svg version="1.1" id="Layer_1" xmlns="http://www.w3.org/2000/svg" xmlns:xlink="http://www.w3.org/1999/xlink" x="0px" y="0px"
	 viewBox="0 0 350 350" xml:space="preserve">
<style type="text/css">
	.st0{fill:url(#SVGID_1_);}
	.st1{fill:url(#SVGID_00000062875109671732200890000001552680454505096091_);}
	.st2{fill:url(#SVGID_00000137106302681736753030000014694574578074883233_);}
	.st3{opacity:0.149;}
	.st4{clip-path:url(#SVGID_00000009560798620511345100000016128133407489752975_);}
	.st5{fill:url(#SVGID_00000146463434641451695790000018425076721253745588_);}
	.st6{opacity:9.800000e-02;}
	.st7{clip-path:url(#SVGID_00000101075804247244133540000005628472614902206885_);}
	.st8{fill:url(#SVGID_00000170261015087947391160000006743844347113599678_);}
</style>
<linearGradient id="SVGID_1_" gradientUnits="userSpaceOnUse" x1="-778.7586" y1="69.1922" x2="-772.597" y2="72.7531" gradientTransform="matrix(24.45 0 0 24.45 19188.9805 -1539.0875)">
	<stop  offset="0" style="stop-color:#37BDFF"/>
	<stop  offset="0.18" style="stop-color:#33BFFD"/>
	<stop  offset="0.36" style="stop-color:#28C5F5"/>
	<stop  offset="0.53" style="stop-color:#15D0E9"/>
	<stop  offset="0.55" style="stop-color:#12D1E7"/>
	<stop  offset="0.59" style="stop-color:#1CD2E5"/>
	<stop  offset="0.77" style="stop-color:#42D8DC"/>
	<stop  offset="0.91" style="stop-color:#59DBD6"/>
	<stop  offset="1" style="stop-color:#62DCD4"/>
</linearGradient>
<path class="st0" d="M292,223.8c0,23.4-8.9,46-24.8,63.2c1.7-1.9,3.2-3.9,4.5-6c1-1.6,1.9-3.3,2.7-5.1c0.3-0.6,0.5-1.2,0.7-1.8
	c0.2-0.6,0.5-1.2,0.6-1.8c0.2-0.6,0.4-1.1,0.5-1.7c0.2-0.6,0.3-1.2,0.5-1.8l0.1-0.2c0.1-0.6,0.2-1.2,0.4-1.8s0.2-1.2,0.3-1.9l0,0
	c0.1-0.6,0.2-1.2,0.2-1.8c0.1-1.4,0.2-2.8,0.2-4.1c0-7.6-2-15-5.9-21.5c-0.9-1.5-1.8-2.8-2.9-4.2c-1.2-1.6-2.6-3.1-4-4.4
	c-3.6-3.5-7.8-6.3-12.4-8.3c-2-0.9-4.1-1.6-6.2-2.1h-0.1l-0.7-0.2l-10.8-3.7l0,0l-28.3-9.7c-0.1,0-0.2,0-0.3,0l-1.8-0.6
	c-5.7-2.3-10.4-6.4-13.3-11.8L181,166l-11.8-30.2l-2.3-5.8l-0.6-1.2c-0.7-1.6-1-3.3-1-5.1c0-0.4,0-0.9,0-1.4
	c0.7-7.2,7.2-12.5,14.5-11.8c1.3,0.1,2.6,0.5,3.8,1l52.7,27l10.4,5.3c5.5,3.3,10.6,7.1,15.3,11.5c17.5,16,28.2,38.2,29.8,61.9
	C291.9,219.4,292,221.6,292,223.8z"/>
<linearGradient id="SVGID_00000096034134687768995630000013738712252113712530_" gradientUnits="userSpaceOnUse" x1="-782.4241" y1="74.4964" x2="-773.4589" y2="74.4964" gradientTransform="matrix(24.45 0 0 24.45 19188.9805 -1539.0875)">
	<stop  offset="0" style="stop-color:#39D2FF"/>
	<stop  offset="0.15" style="stop-color:#38CEFE"/>
	<stop  offset="0.29" style="stop-color:#35C3FA"/>
	<stop  offset="0.43" style="stop-color:#2FB0F3"/>
	<stop  offset="0.55" style="stop-color:#299AEB"/>
	<stop  offset="0.58" style="stop-color:#2692EC"/>
	<stop  offset="0.76" style="stop-color:#1A6CF1"/>
	<stop  offset="0.91" style="stop-color:#1355F4"/>
	<stop  offset="1" style="stop-color:#104CF5"/>
</linearGradient>
<path style="fill:url(#SVGID_00000096034134687768995630000013738712252113712530_);" d="M277.9,258.9c0,2.6-0.2,5.2-0.7,7.8
	c-0.1,0.7-0.3,1.4-0.4,2c-0.3,1.2-0.6,2.4-1,3.5c-0.2,0.6-0.4,1.2-0.6,1.8c-0.2,0.6-0.5,1.2-0.7,1.8c-0.8,1.8-1.7,3.5-2.7,5.1
	c-1.3,2.1-2.8,4.1-4.5,6c-7.7,8.5-33.8,23.6-43.4,29.8l-21.3,13c-15.6,9.6-30.4,16.5-49,16.9c-0.9,0-1.7,0-2.6,0
	c-1.2,0-2.4,0-3.6-0.1c-30.6-1.2-58.6-17.3-74.9-43.2c-7.4-11.7-12.1-24.9-13.7-38.7c4,22.4,25.4,37.2,47.7,33.2
	c4.3-0.8,8.4-2.2,12.3-4.3l0.1-0.1l2.1-1.2l8.5-5l10.8-6.4v-0.3l1.4-0.8l96.7-57.3l7.4-4.4l0.7,0.2h0.1c2.1,0.5,4.2,1.2,6.2,2.1
	c4.6,2,8.8,4.8,12.4,8.3c1.4,1.4,2.8,2.9,4,4.4c1,1.3,2,2.7,2.9,4.2C275.9,243.9,278,251.3,277.9,258.9z"/>
<linearGradient id="SVGID_00000011021415631269039040000005439882081058281884_" gradientUnits="userSpaceOnUse" x1="-780.7706" y1="75.4052" x2="-780.7706" y2="63.4152" gradientTransform="matrix(24.45 0 0 24.45 19188.9805 -1539.0875)">
	<stop  offset="0" style="stop-color:#1B48EF"/>
	<stop  offset="0.12" style="stop-color:#1C51F0"/>
	<stop  offset="0.32" style="stop-color:#1E69F5"/>
	<stop  offset="0.57" style="stop-color:#2190FB"/>
	<stop  offset="1" style="stop-color:#26B8F4"/>
</linearGradient>
<path style="fill:url(#SVGID_00000011021415631269039040000005439882081058281884_);" d="M140.2,67.7V281l-10.9,6.4l-8.5,5l-2.1,1.3
	c0,0-0.1,0-0.1,0.1c-20,10.8-44.9,3.3-55.7-16.7c-2.1-3.8-3.5-8-4.3-12.3c-0.2-0.9-0.3-1.8-0.4-2.7c-0.1-1.7-0.2-3.3-0.2-5V17
	c0-7.6,6.2-13.8,13.8-13.8c2.7,0,5.4,0.8,7.7,2.3l42.1,27.5c0.2,0.2,0.5,0.4,0.7,0.5C133.6,41.3,140.3,54.1,140.2,67.7z"/>
<g class="st3">
	<g>
		<defs>
			<rect id="SVGID_00000178915312546164369520000014207547300590935486_" x="58" y="208.7" width="227.2" height="140.8"/>
		</defs>
		<clipPath id="SVGID_00000049220268803942018440000001520133586738116268_">
			<use xlink:href="#SVGID_00000178915312546164369520000014207547300590935486_"  style="overflow:visible;"/>
		</clipPath>
		<g style="clip-path:url(#SVGID_00000049220268803942018440000001520133586738116268_);">

				<linearGradient id="SVGID_00000029007330668178028740000005581496370854938807_" gradientUnits="userSpaceOnUse" x1="-780.7069" y1="76.7706" x2="-775.1659" y2="71.2396" gradientTransform="matrix(24.45 0 0 24.45 19188.9805 -1539.0875)">
				<stop  offset="0" style="stop-color:#FFFFFF"/>
				<stop  offset="0.37" style="stop-color:#FDFDFD"/>
				<stop  offset="0.51" style="stop-color:#F6F6F6"/>
				<stop  offset="0.6" style="stop-color:#EBEBEB"/>
				<stop  offset="0.68" style="stop-color:#DADADA"/>
				<stop  offset="0.75" style="stop-color:#C4C4C4"/>
				<stop  offset="0.81" style="stop-color:#A8A8A8"/>
				<stop  offset="0.86" style="stop-color:#888888"/>
				<stop  offset="0.91" style="stop-color:#626262"/>
				<stop  offset="0.95" style="stop-color:#373737"/>
				<stop  offset="0.99" style="stop-color:#090909"/>
				<stop  offset="1" style="stop-color:#000000"/>
			</linearGradient>
			<path style="fill:url(#SVGID_00000029007330668178028740000005581496370854938807_);" d="M277.9,258.9c0,2.6-0.2,5.2-0.7,7.8
				c-0.1,0.7-0.3,1.4-0.4,2c-0.3,1.2-0.6,2.4-1,3.5c-0.2,0.6-0.4,1.2-0.6,1.8c-0.2,0.6-0.5,1.2-0.7,1.8c-0.8,1.8-1.7,3.5-2.7,5.1
				c-1.3,2.1-2.8,4.1-4.5,6c-7.7,8.5-33.8,23.6-43.4,29.8l-21.3,13c-15.6,9.6-30.4,16.5-49,16.9c-0.9,0-1.7,0-2.6,0
				c-1.2,0-2.4,0-3.6-0.1c-30.6-1.2-58.6-17.3-74.9-43.2c-7.4-11.7-12.1-24.9-13.7-38.7c4,22.4,25.4,37.2,47.7,33.2
				c4.3-0.8,8.4-2.2,12.3-4.3l0.1-0.1l2.1-1.2l8.5-5l10.8-6.4v-0.3l1.4-0.8l96.7-57.3l7.4-4.4l0.7,0.2h0.1c2.1,0.5,4.2,1.2,6.2,2.1
				c4.6,2,8.8,4.8,12.4,8.3c1.4,1.4,2.8,2.9,4,4.4c1,1.3,2,2.7,2.9,4.2C275.9,243.9,278,251.3,277.9,258.9z"/>
		</g>
	</g>
</g>
<g class="st6">
	<g>
		<defs>
			<rect id="SVGID_00000124162922153904618150000005999782746621744544_" x="58" y="3.2" width="86.5" height="303"/>
		</defs>
		<clipPath id="SVGID_00000168101006907294116100000010411582769666823603_">
			<use xlink:href="#SVGID_00000124162922153904618150000005999782746621744544_"  style="overflow:visible;"/>
		</clipPath>
		<g style="clip-path:url(#SVGID_00000168101006907294116100000010411582769666823603_);">

				<linearGradient id="SVGID_00000119831564981169173530000018069391716850420636_" gradientUnits="userSpaceOnUse" x1="-780.7706" y1="63.2052" x2="-780.7706" y2="75.2842" gradientTransform="matrix(24.45 0 0 24.45 19188.9805 -1539.0875)">
				<stop  offset="0" style="stop-color:#FFFFFF"/>
				<stop  offset="0.37" style="stop-color:#FDFDFD"/>
				<stop  offset="0.51" style="stop-color:#F6F6F6"/>
				<stop  offset="0.6" style="stop-color:#EBEBEB"/>
				<stop  offset="0.68" style="stop-color:#DADADA"/>
				<stop  offset="0.75" style="stop-color:#C4C4C4"/>
				<stop  offset="0.81" style="stop-color:#A8A8A8"/>
				<stop  offset="0.86" style="stop-color:#888888"/>
				<stop  offset="0.91" style="stop-color:#626262"/>
				<stop  offset="0.95" style="stop-color:#373737"/>
				<stop  offset="0.99" style="stop-color:#090909"/>
				<stop  offset="1" style="stop-color:#000000"/>
			</linearGradient>
			<path style="fill:url(#SVGID_00000119831564981169173530000018069391716850420636_);" d="M140.2,67.7V281l-10.9,6.4l-8.5,5
				l-2.1,1.3c0,0-0.1,0-0.1,0.1c-20,10.8-44.9,3.3-55.7-16.7c-2.1-3.8-3.5-8-4.3-12.3c-0.2-0.9-0.3-1.8-0.4-2.7
				c-0.1-1.7-0.2-3.3-0.2-5V17c0-7.6,6.2-13.8,13.8-13.8c2.7,0,5.4,0.8,7.7,2.3l42.1,27.5c0.2,0.2,0.5,0.4,0.7,0.5
				C133.6,41.3,140.3,54.1,140.2,67.7z"/>
		</g>
	</g>
</g>
</svg>
