<svg version="1.1" xmlns="http://www.w3.org/2000/svg" xmlns:xlink="http://www.w3.org/1999/xlink" x="0px" y="0px"
	 viewBox="0 0 710 710" style="enable-background:new 0 0 710 710;" xml:space="preserve">
<style type="text/css">
	.st0{fill:#FFFFFF;}
	.st1{fill:#231F20;}
	.st2{fill:none;stroke:#FEA949;stroke-width:14;}
</style>
<circle class="st0" cx="355" cy="355" r="355"/>
<path class="st1" d="M253,154.9c7.1,0,13.2,1,18.3,3c5.2,1.9,9.6,4.5,13.4,7.9v23.5c-2.7-2-5.5-4-8.4-5.9c-2.9-1.9-6.2-3.5-9.9-4.7
	c-3.6-1.2-7.8-1.8-12.8-1.8c-6.7,0-12.8,1.6-18.3,4.9c-5.5,3.2-9.9,7.6-13.1,13.1c-3.2,5.5-4.9,11.8-4.9,18.8
	c0,6.9,1.6,13.2,4.9,18.8c3.2,5.5,7.6,9.9,13.1,13.1c5.5,3.1,11.6,4.7,18.3,4.7c7.5,0,13.8-1.1,18.8-3.4c5.2-2.4,9.8-5.2,13.9-8.6
	v22.7c-3.8,3.5-8.6,6.3-14.3,8.4c-5.7,2-12.1,3-19.1,3c-8.1,0-15.7-1.4-22.8-4.2c-7.2-2.9-13.5-6.9-19-12.1
	c-5.5-5.3-9.8-11.5-12.9-18.6c-3.1-7.2-4.7-15.1-4.7-23.9c0-8.7,1.6-16.7,4.7-23.9c3.1-7.2,7.4-13.3,12.9-18.5
	c5.5-5.3,11.8-9.3,19-12.1C237.3,156.4,245,154.9,253,154.9z M361.4,156.6L413.8,270h-27.4l-8.6-21h-44.5l-8.6,21h-27.4l52.4-113.4
	H361.4z M355.7,194.8l-14.1,34.4h28.2L355.7,194.8z M248.5,297.5c5.3,0,10.4,0.7,15.5,2.2c5,1.5,9.6,3.7,13.6,6.7
	c4.1,3,7.4,6.8,9.7,11.4c2.5,4.5,3.7,9.9,3.7,16.1c0,6.6-1.7,12.3-5,17.1c-3.2,4.7-7.6,8.4-12.9,11.1c-5.4,2.6-11.2,4.1-17.5,4.5
	L296,410h-30.7l-39.1-46v46h-23.3V297.5H248.5z M226.1,319.3v28.4c2.7,0.9,5.7,1.6,8.9,2.2c3.4,0.4,6.7,0.7,10.1,0.7
	c6.7,0,12-1.3,16-4c4-2.8,6-6.7,6-11.8c0-5.5-2.1-9.4-6.4-11.8c-4.1-2.5-9.2-3.7-15.3-3.7H226.1z M360.4,296.6L412.8,410h-27.4
	l-8.6-21h-44.5l-8.6,21h-27.4l52.4-113.4H360.4z M354.7,334.8l-14.1,34.4h28.2L354.7,334.8z M536,296.6V410h-23.3v-68.5L483.7,373
	H477l-29.2-31.6V410h-23.3V296.6h7.9l48,50.1l47.7-50.1H536z M243.2,438.8c8.4,0,15.8,1.4,22,4.1c6.3,2.6,11.1,6.2,14.6,10.9
	c3.6,4.6,5.4,10,5.4,16c0,5.4-1.5,10.2-4.4,14.4c-2.8,4.2-6.4,7.5-10.7,9.7c3.2,0.9,6.4,2.3,9.4,4.4c3,1.9,5.5,4.6,7.5,7.9
	c1.9,3.2,2.9,7.4,2.9,12.5c0,6.1-1.8,11.6-5.5,16.7c-3.7,5-8.8,9-15.4,12s-14.3,4.5-23,4.5c-4.8,0-9.9-0.2-15.4-0.6
	c-5.5-0.3-10.8-0.8-15.7-1.5c-5-0.8-9.2-1.5-12.6-2.3V442.8c6.1-1.3,12.6-2.3,19.6-2.9C228.9,439.2,236,438.8,243.2,438.8z
	 M243.2,459.4c-6.9,0-13.1,0.5-18.5,1.6v26.3H245c5.5,0,9.8-1.4,13-4.1c3.2-2.7,4.9-6.2,4.9-10.4c0-4.3-1.9-7.6-5.8-9.9
	C253.2,460.6,248.6,459.4,243.2,459.4z M224.7,529.7c3,0.8,6.5,1.3,10.4,1.6c4,0.2,7.2,0.3,9.6,0.3c6.3,0,11.4-1.2,15.4-3.7
	c4.1-2.5,6.2-6,6.2-10.5s-2.1-7.9-6.3-10.1c-4.2-2.3-9.3-3.4-15.2-3.4h-19.9V529.7z M362.1,440.6L412.6,550h-26.4l-8.3-20.3h-43
	l-8.3,20.3h-26.4l50.6-109.4H362.1z M356.5,477.4l-13.6,33.2h27.2L356.5,477.4z"/>
<circle class="st2" cx="355" cy="355" r="348"/>
</svg>
