<svg version="1.1" xmlns="http://www.w3.org/2000/svg" xmlns:xlink="http://www.w3.org/1999/xlink"
	 viewBox="0 0 731 731" >
<path d="M286.8,89.7c-54.7,49.3-101.2,91.2-103.2,93l-3.8,3.4v64c0,35.2,0.2,64,0.5,64s36-31.9,79.3-71l78.7-71l0.3,193.2
	c0.1,106.2,0,193.3-0.2,193.6c-0.4,0.4-21.4-18.4-133.1-119.1c-13.2-11.9-24.3-21.7-24.7-21.7c-0.5,0-0.8,28.7-0.8,63.8v63.7
	l32.3,29.1c17.7,15.9,55.1,49.7,83.1,74.9c79.6,71.9,90.6,81.7,91.6,81.3c1-0.4-3.1,3.4,111.8-100.2l93.2-84v-57.3v-57.2L541,386.4
	c-28-25.1-63.5-57.2-79-71.2l-28.3-25.4v-58.9c0-34.1,0.4-58.8,0.9-58.6c0.7,0.2,128.9,115.4,153.9,138.2l4.2,3.9v-64.5v-64.4
	l-33.2-30c-18.3-16.4-58.9-53-90.3-81.3c-76-68.5-82.2-74.1-82.7-74.1C386.4,0.1,341.5,40.4,286.8,89.7z M473.4,454.3
	c20.8,18.7,38,34.4,38.2,34.8c0.3,0.8-75.1,69.2-76.9,69.8c-0.5,0.2-0.9-26.1-0.9-69.2c0-38.3,0.4-69.6,0.8-69.6
	C435.1,420.1,452.5,435.5,473.4,454.3z"/>
</svg>
